<svg width="192" height="192" viewBox="0 0 192 192" fill="none" xmlns="http://www.w3.org/2000/svg">
  <rect width="192" height="192" fill="#000000"/>
  <path d="M96 48C78.3269 48 64 62.3269 64 80C64 88.8366 68.0294 96.7403 74.4 102.4L74.4 118.4C74.4 121.493 76.9072 124 80 124H112C115.093 124 117.6 121.493 117.6 118.4V102.4C123.971 96.7403 128 88.8366 128 80C128 62.3269 113.673 48 96 48ZM96 60.8C106.609 60.8 115.2 69.3908 115.2 80C115.2 86.4 111.893 92.16 106.88 95.68L105.6 96.64V111.2H86.4V96.64L85.12 95.68C80.1066 92.16 76.8 86.4 76.8 80C76.8 69.3908 85.3908 60.8 96 60.8ZM86.4 128C84.8536 128 83.2 129.654 83.2 131.2V134.4C83.2 135.946 84.8536 137.6 86.4 137.6H105.6C107.146 137.6 108.8 135.946 108.8 134.4V131.2C108.8 129.654 107.146 128 105.6 128H86.4Z" fill="#3B82F6"/>
</svg>
