<svg width="512" height="512" viewBox="0 0 512 512" fill="none" xmlns="http://www.w3.org/2000/svg">
  <rect width="512" height="512" fill="#000000"/>
  <path d="M256 128C208.872 128 171 165.872 171 213C171 237.024 181.411 258.64 198.4 273.067V316.8C198.4 324.648 204.752 331 212.6 331H299.4C307.248 331 313.6 324.648 313.6 316.8V273.067C330.589 258.64 341 237.024 341 213C341 165.872 303.128 128 256 128ZM256 162.133C284.291 162.133 306.867 184.709 306.867 213C306.867 229.867 298.384 245.76 284.8 255.147L280.533 258.133V296.867H231.467V258.133L227.2 255.147C213.616 245.76 205.133 229.867 205.133 213C205.133 184.709 227.709 162.133 256 162.133ZM231.467 341.333C227.609 341.333 222.4 345.744 222.4 349.867V358.4C222.4 362.523 227.609 366.933 231.467 366.933H280.533C284.391 366.933 289.6 362.523 289.6 358.4V349.867C289.6 345.744 284.391 341.333 280.533 341.333H231.467Z" fill="#3B82F6"/>
</svg>
